HIERARCHY
ROOT Hips
{
	OFFSET 0.000000 0.000000 0.000000
	CHANNELS 6 Xposition Yposition Zposition Zrotation Yrotation Xrotation 
	JOINT LHipJoint
	{
		OFFSET 0.000000 0.000000 0.000000
		CHANNELS 3 Zrotation Yrotation Xrotation
		JOINT LeftUpLeg
		{
			OFFSET 1.363060 -1.794630 0.839290
			CHANNELS 3 Zrotation Yrotation Xrotation
			JOINT LeftLeg
			{
				OFFSET 2.448110 -6.726130 0.000000
				CHANNELS 3 Zrotation Yrotation Xrotation
				JOINT LeftFoot
				{
					OFFSET 2.562200 -7.039590 0.000000
					CHANNELS 3 Zrotation Yrotation Xrotation
					JOINT LeftToeBase
					{
						OFFSET 0.157640 -0.433110 2.322550
						CHANNELS 3 Zrotation Yrotation Xrotation
						End Site
						{
							OFFSET 0.000000 0.000000 0.000000
						}
					}
				}
			}
		}
	}
	JOINT RHipJoint
	{
		OFFSET 0.000000 0.000000 0.000000
		CHANNELS 3 Zrotation Yrotation Xrotation
		JOINT RightUpLeg
		{
			OFFSET -1.305520 -1.794630 0.839290
			CHANNELS 3 Zrotation Yrotation Xrotation
			JOINT RightLeg
			{
				OFFSET -2.542530 -6.985550 0.000000
				CHANNELS 3 Zrotation Yrotation Xrotation
				JOINT RightFoot
				{
					OFFSET -2.568260 -7.056230 0.000000
					CHANNELS 3 Zrotation Yrotation Xrotation
					JOINT RightToeBase
					{
						OFFSET -0.164730 -0.452590 2.363150
						CHANNELS 3 Zrotation Yrotation Xrotation
						End Site
						{
							OFFSET 0.000000 0.000000 0.000000
						}
					}
				}
			}
		}
	}
	JOINT LowerBack
	{
		OFFSET 0.000000 0.000000 0.000000
		CHANNELS 3 Zrotation Yrotation Xrotation
		JOINT Spine
		{
			OFFSET 0.028270 2.035590 -0.193380
			CHANNELS 3 Zrotation Yrotation Xrotation
			JOINT Spine1
			{
				OFFSET 0.056720 2.048850 -0.042750
				CHANNELS 3 Zrotation Yrotation Xrotation
				JOINT Neck
				{
					OFFSET 0.000000 0.000000 0.000000
					CHANNELS 3 Zrotation Yrotation Xrotation
					JOINT Neck1
					{
						OFFSET -0.054170 1.746240 0.172020
						CHANNELS 3 Zrotation Yrotation Xrotation
						JOINT Head
						{
							OFFSET 0.104070 1.761360 -0.123970
							CHANNELS 3 Zrotation Yrotation Xrotation
							End Site
							{
								OFFSET 0.000000 0.000000 0.000000
							}
						}
					}
				}
				JOINT LeftShoulder
				{
					OFFSET 0.000000 0.000000 0.000000
					CHANNELS 3 Zrotation Yrotation Xrotation
					JOINT LeftArm
					{
						OFFSET 3.362410 1.200890 -0.311210
						CHANNELS 3 Zrotation Yrotation Xrotation
						JOINT LeftForeArm
						{
							OFFSET 4.983000 -0.000000 -0.000000
							CHANNELS 3 Zrotation Yrotation Xrotation
							JOINT LeftHand
							{
								OFFSET 3.483560 -0.000000 -0.000000
								CHANNELS 3 Zrotation Yrotation Xrotation
								JOINT LeftFingerBase
								{
									OFFSET 0.000000 0.000000 0.000000
									CHANNELS 3 Zrotation Yrotation Xrotation
									JOINT LeftHandIndex1
									{
										OFFSET 0.715260 -0.000000 -0.000000
										CHANNELS 3 Zrotation Yrotation Xrotation
										End Site
										{
											OFFSET 0.000000 0.000000 0.000000
										}
									}
								}
								JOINT LThumb
								{
									OFFSET 0.000000 0.000000 0.000000
									CHANNELS 3 Zrotation Yrotation Xrotation
									End Site
									{
										OFFSET 0.000000 0.000000 0.000000
									}
								}
							}
						}
					}
				}
				JOINT RightShoulder
				{
					OFFSET 0.000000 0.000000 0.000000
					CHANNELS 3 Zrotation Yrotation Xrotation
					JOINT RightArm
					{
						OFFSET -3.136600 1.374050 -0.404650
						CHANNELS 3 Zrotation Yrotation Xrotation
						JOINT RightForeArm
						{
							OFFSET -5.241900 -0.000000 -0.000000
							CHANNELS 3 Zrotation Yrotation Xrotation
							JOINT RightHand
							{
								OFFSET -3.444170 -0.000000 -0.000000
								CHANNELS 3 Zrotation Yrotation Xrotation
								JOINT RightFingerBase
								{
									OFFSET 0.000000 0.000000 0.000000
									CHANNELS 3 Zrotation Yrotation Xrotation
									JOINT RightHandIndex1
									{
										OFFSET -0.622530 -0.000000 -0.000000
										CHANNELS 3 Zrotation Yrotation Xrotation
										End Site
										{
											OFFSET 0.000000 0.000000 0.000000
										}
									}
								}
								JOINT RThumb
								{
									OFFSET 0.000000 0.000000 0.000000
									CHANNELS 3 Zrotation Yrotation Xrotation
									End Site
									{
										OFFSET 0.000000 0.000000 0.000000
									}
								}
							}
						}
					}
				}
			}
		}
	}
}
MOTION
Frames: 9
Frame Time: 0.008333
6.292125 17.297450 -23.117850 -175.223490 -88.530795 -175.297795 1.771753 13.350572 5.251154 -17.941116 -11.211435 -7.608006 -2.751562 -0.195352 6.057002 11.502115 0.529574 -5.693791 -1.297252 -0.877459 -6.813498 -9.337661 -19.020676 -0.987814 31.335010 9.147236 -2.049535 -1.653655 1.105248 13.424301 -25.074607 3.944018 -7.743029 2.142228 -1.187450 -7.064458 -2.605862 4.609141 -0.754818 5.837407 4.839101 7.813557 -2.536290 -5.081787 -16.024880 -1.894235 1.182304 -9.876028 6.675914 0.413632 5.738175 -1.901913 -1.310462 -14.685760 16.683540 19.747623 -5.050684 -34.808913 -10.572568 2.186388 9.390300 -8.326110 8.447333 2.122654 -1.764325 3.076837 1.866810 10.231075 -0.000000 0.000000 0.000000 0.000000 0.000000 0.000000 0.000000 -18.239018 -25.293758 -1.318818 34.958106 12.219510 12.385514 -11.702955 7.998451 13.024049 -4.363202 -3.247175 8.037720 -3.548608 -11.010107 -0.000000 0.000000 0.000000 0.000000 0.000000 0.000000 0.000000 
6.291780 17.297450 -23.116950 -175.195267 -88.420006 -175.301689 1.773216 13.424676 5.257404 -17.955226 -11.182510 -7.638785 -2.753166 -0.193977 6.052427 11.510259 0.522834 -5.693675 -1.301479 -0.870682 -6.805627 -9.324729 -18.931115 -1.037595 31.326530 9.172403 -2.035200 -1.652874 1.103278 13.424767 -25.054412 3.940101 -7.733202 2.139314 -1.184021 -7.061300 -2.595860 4.593778 -0.712001 5.825525 4.820521 7.791520 -2.426220 -5.183050 -16.284788 -1.978345 1.343515 -9.670687 6.719893 0.554175 5.700078 -1.882672 -1.284461 -14.718846 16.717696 19.908897 -4.980168 -34.811523 -10.396555 2.249926 9.353987 -8.363635 8.509190 2.125612 -1.765986 3.110937 1.865585 10.227365 -0.000000 0.000000 0.000000 0.000000 0.000000 0.000000 0.000000 -18.108982 -25.784576 -1.748299 34.786613 13.285355 13.065369 -11.325194 7.355956 13.299984 -4.346855 -3.245942 8.165915 -3.512532 -11.019116 -0.000000 0.000000 0.000000 0.000000 0.000000 0.000000 0.000000 
6.291285 17.297750 -23.116500 -175.221852 -88.526196 -175.297084 1.777686 13.354148 5.246136 -17.954751 -11.203211 -7.594023 -2.752414 -0.198218 6.043307 11.515744 0.518611 -5.681896 -1.296470 -0.875827 -6.805871 -9.332923 -19.014795 -0.980870 31.321974 9.153723 -2.058232 -1.650465 1.105317 13.420255 -25.070424 3.939814 -7.741853 2.140176 -1.186455 -7.063109 -2.593307 4.603729 -0.755614 5.830072 4.831590 7.821645 -2.534934 -5.073913 -16.046034 -1.893904 1.185868 -9.859073 6.681054 0.415258 5.756850 -1.900721 -1.314198 -14.674261 16.682150 19.755872 -5.055688 -34.826308 -10.575981 2.178832 9.388172 -8.325824 8.459372 2.117477 -1.780406 3.079130 1.861236 10.226647 -0.000000 0.000000 0.000000 0.000000 0.000000 0.000000 0.000000 -18.236201 -25.304284 -1.347659 34.954397 12.266399 12.397096 -11.677334 7.914341 13.062856 -4.357488 -3.274198 8.051101 -3.542421 -11.016417 -0.000000 0.000000 0.000000 0.000000 0.000000 0.000000 0.000000 
6.292305 17.297150 -23.115300 -175.188876 -88.403779 -175.297305 1.788472 13.432376 5.231847 -17.988113 -11.163721 -7.616026 -2.750887 -0.190367 6.039712 11.543004 0.515523 -5.684830 -1.305003 -0.869533 -6.810762 -9.305116 -18.925966 -1.030117 31.304538 9.195290 -2.069844 -1.654742 1.095656 13.440832 -25.049346 3.929407 -7.765089 2.130682 -1.179886 -7.057638 -2.574814 4.580232 -0.687948 5.788030 4.805351 7.756735 -2.414673 -5.142808 -16.262343 -1.971952 1.346403 -9.682926 6.725664 0.555745 5.721851 -1.882074 -1.289994 -14.708489 16.728102 19.923048 -4.991663 -34.847115 -10.406795 2.237241 9.352985 -8.360269 8.524238 2.122496 -1.791863 3.114435 1.861938 10.220858 -0.000000 0.000000 0.000000 0.000000 0.000000 0.000000 0.000000 -18.107100 -25.761075 -1.704009 34.745633 13.233244 13.081154 -11.326526 7.461203 13.224830 -4.310104 -3.221537 8.116324 -3.478552 -11.017959 -0.000000 0.000000 0.000000 0.000000 0.000000 0.000000 0.000000 
6.290220 17.297900 -23.115450 -175.217856 -88.520149 -175.295009 1.773680 13.349004 5.243248 -17.951236 -11.195926 -7.587991 -2.755804 -0.194121 6.025024 11.508987 0.519218 -5.677592 -1.298785 -0.876527 -6.808722 -9.337140 -19.015132 -0.981710 31.327399 9.153988 -2.053219 -1.650093 1.109934 13.408444 -25.060128 3.933386 -7.725755 2.148885 -1.189282 -7.073023 -2.595946 4.615329 -0.749991 5.844258 4.843157 7.824941 -2.537332 -5.090389 -16.062671 -1.891319 1.176551 -9.859448 6.675457 0.406620 5.782594 -1.902123 -1.312025 -14.659717 16.664827 19.771993 -5.073351 -34.832742 -10.601318 2.183123 9.388075 -8.315701 8.481778 2.111585 -1.801023 3.087914 1.854339 10.224134 -0.000000 0.000000 0.000000 0.000000 0.000000 0.000000 0.000000 -18.226591 -25.325237 -1.343312 34.918661 12.261354 12.414059 -11.695702 7.976308 13.040221 -4.370016 -3.288260 8.052222 -3.553853 -11.017000 -0.000000 0.000000 0.000000 0.000000 0.000000 0.000000 0.000000 
6.289320 17.297600 -23.114700 -175.190882 -88.405068 -175.300163 1.773511 13.421132 5.255497 -17.959697 -11.168581 -7.617928 -2.757265 -0.191998 6.013829 11.531416 0.515952 -5.675463 -1.300603 -0.874517 -6.810940 -9.325901 -18.933517 -1.035505 31.322829 9.165634 -2.032399 -1.649394 1.103812 13.408163 -25.051554 3.935191 -7.732916 2.145948 -1.182716 -7.078344 -2.595228 4.600749 -0.710248 5.833602 4.826600 7.795063 -2.422779 -5.183279 -16.287796 -1.969059 1.329403 -9.683320 6.716357 0.540710 5.764785 -1.883910 -1.285643 -14.680908 16.699955 19.933949 -4.998526 -34.839103 -10.433110 2.261004 9.353300 -8.356822 8.551969 2.116371 -1.799597 3.127617 1.854458 10.220302 -0.000000 0.000000 0.000000 0.000000 0.000000 0.000000 0.000000 -18.095720 -25.794744 -1.715562 34.712019 13.252865 13.104008 -11.338908 7.472613 13.254363 -4.327261 -3.239240 8.146376 -3.492698 -11.018444 -0.000000 0.000000 0.000000 0.000000 0.000000 0.000000 0.000000 
6.289230 17.298050 -23.114250 -175.186906 -88.401971 -175.296835 1.769758 13.416423 5.251913 -17.956821 -11.170508 -7.621637 -2.758034 -0.190505 6.013795 11.520995 0.521908 -5.668188 -1.301911 -0.872949 -6.807371 -9.328272 -18.930117 -1.041068 31.328170 9.168237 -2.030461 -1.650430 1.106323 13.402658 -25.043172 3.927672 -7.715602 2.149951 -1.186346 -7.076324 -2.593325 4.603051 -0.697671 5.840598 4.828849 7.792879 -2.427391 -5.189936 -16.313239 -1.970442 1.328570 -9.674042 6.714667 0.539585 5.777150 -1.884183 -1.283621 -14.674915 16.681600 19.950572 -5.013342 -34.830634 -10.450289 2.263520 9.357877 -8.348403 8.567945 2.114820 -1.806321 3.136239 1.852110 10.221049 -0.000000 0.000000 0.000000 0.000000 0.000000 0.000000 0.000000 -18.082545 -25.818085 -1.732411 34.704314 13.296536 13.133893 -11.345108 7.432706 13.305676 -4.351897 -3.268426 8.186288 -3.513291 -11.021013 -0.000000 0.000000 0.000000 0.000000 0.000000 0.000000 0.000000 
6.288495 17.297900 -23.113500 -175.187564 -88.391298 -175.299023 1.772482 13.423994 5.253025 -17.963065 -11.163632 -7.614620 -2.758914 -0.189654 6.007220 11.530572 0.514927 -5.674261 -1.300560 -0.873277 -6.807166 -9.324371 -18.939438 -1.040944 31.320529 9.153789 -2.036260 -1.645913 1.100916 13.407935 -25.062024 3.943649 -7.731218 2.141330 -1.180732 -7.072077 -2.591996 4.602706 -0.700056 5.838165 4.827654 7.803812 -2.423326 -5.182727 -16.307247 -1.967742 1.327721 -9.683479 6.715299 0.538795 5.795663 -1.883977 -1.284329 -14.663291 16.681867 19.955111 -5.016903 -34.842123 -10.449266 2.260085 9.355461 -8.352949 8.567973 2.105844 -1.826584 3.131236 1.843307 10.217327 -0.000000 0.000000 0.000000 0.000000 0.000000 0.000000 0.000000 -18.079993 -25.812766 -1.711744 34.681654 13.271163 13.144067 -11.344817 7.510869 13.246753 -4.332466 -3.231044 8.151350 -3.496127 -11.016456 -0.000000 0.000000 0.000000 0.000000 0.000000 0.000000 0.000000 
6.288390 17.298050 -23.113050 -175.183903 -88.386769 -175.296234 1.769674 13.418556 5.250829 -17.960342 -11.168049 -7.617311 -2.758383 -0.187787 6.006394 11.533888 0.525155 -5.669889 -1.296912 -0.872617 -6.801851 -9.326295 -18.937728 -1.047036 31.324176 9.153206 -2.035897 -1.645772 1.103173 13.404766 -25.057747 3.944110 -7.725051 2.145815 -1.181347 -7.077526 -2.592063 4.606619 -0.688462 5.844927 4.832041 7.794615 -2.426518 -5.191880 -16.317964 -1.967705 1.323423 -9.680349 6.714984 0.534456 5.813040 -1.884316 -1.285403 -14.654028 16.672100 19.958500 -5.022795 -34.836189 -10.448004 2.255083 9.358858 -8.351543 8.566032 2.113261 -1.829858 3.134671 1.850486 10.217782 -0.000000 0.000000 0.000000 0.000000 0.000000 0.000000 0.000000 -18.075213 -25.820719 -1.718934 34.673175 13.288170 13.154550 -11.342540 7.507399 13.259286 -4.321679 -3.253006 8.154191 -3.484756 -11.020644 -0.000000 0.000000 0.000000 0.000000 0.000000 0.000000 0.000000 
